# xmcd CD database file
#
# Track frame offsets:
#	150
#	19140
#	35772
#	56370
#	75505
#	95026
#	114625
#	145175
#	171821
#	199044
#	218461
#	236055
#	258161
#
# Disc length: 3622 seconds
#
# Revision: 4
# Processed by: cddbd v1.5.2PL0 Copyright (c) Steve Scherf et al.
# Submitted via: CDex 1.70beta2
#
DISCID=ac0e240d
DTITLE=Chris Rea - Santo Spirito Blues
DYEAR=2011
DGENRE=Blues
TTITLE0=Dancing My Blues Away
TTITLE1=Rock And Roll Tonight
TTITLE2=Never Tie Me Down
TTITLE3=The Chance Of Love
TTITLE4=The Last Open Road
TTITLE5=Electric Guitar
TTITLE6=Money
TTITLE7=The Way She Moves
TTITLE8=Dance With Me All Night Long
TTITLE9=Think Like A Woman
TTITLE10=You Got Lucky
TTITLE11=Lose My Heart In You
TTITLE12=I Will Go On
EXTD=YEAR: 2011
EXTT0=
EXTT1=
EXTT2=
EXTT3=
EXTT4=
EXTT5=
EXTT6=
EXTT7=
EXTT8=
EXTT9=
EXTT10=
EXTT11=
EXTT12=
PLAYORDER=
